<svg width="25" height="26" viewBox="0 0 25 26" fill="none" xmlns="http://www.w3.org/2000/svg">
<path d="M24.3635 24.7489V20.5508C24.3635 17.5388 21.9131 15.0884 18.9011 15.0884H6.2157C3.2015 15.0884 0.75 17.5399 0.75 20.5541V24.9989V25.2489H1H24.1135V25H24.3635V24.9989V24.7489ZM22.3082 20.5497V23.1936H2.80527V20.553C2.80527 18.6726 4.33526 17.1426 6.2157 17.1426H18.9011C20.7794 17.1426 22.3082 18.6715 22.3082 20.5497Z" fill="#94A3B8" stroke="#94A3B8" stroke-width="0.5"/>
<path d="M6.18237 7.12331C6.18237 10.5548 8.90701 13.3612 12.3068 13.4929V13.4989H12.5568C16.072 13.4989 18.9312 10.6397 18.9312 7.12443C18.9312 3.6092 16.072 0.75 12.5568 0.75C9.04163 0.75 6.18237 3.60803 6.18237 7.12331ZM8.23764 7.12443C8.23764 4.74296 10.1753 2.80527 12.5568 2.80527C14.9383 2.80527 16.876 4.74296 16.876 7.12443C16.876 9.50589 14.9383 11.4436 12.5568 11.4436C10.1753 11.4436 8.23764 9.50589 8.23764 7.12443Z" fill="#94A3B8" stroke="#94A3B8" stroke-width="0.5"/>
</svg>
